<svg width="45" height="43" viewBox="0 0 45 43" fill="none" xmlns="http://www.w3.org/2000/svg">
<g opacity="0.4">
<circle cx="43.9191" cy="1.00963" r="1.00963" transform="rotate(90 43.9191 1.00963)" fill="white"/>
<circle cx="43.9191" cy="9.08719" r="1.00963" transform="rotate(90 43.9191 9.08719)" fill="white"/>
<circle cx="43.9191" cy="17.1639" r="1.00963" transform="rotate(90 43.9191 17.1639)" fill="white"/>
<circle cx="43.9191" cy="25.2412" r="1.00963" transform="rotate(90 43.9191 25.2412)" fill="white"/>
<circle cx="43.9191" cy="33.3184" r="1.00963" transform="rotate(90 43.9191 33.3184)" fill="white"/>
<circle cx="43.9191" cy="41.3952" r="1.00963" transform="rotate(90 43.9191 41.3952)" fill="white"/>
<circle cx="35.3371" cy="1.00963" r="1.00963" transform="rotate(90 35.3371 1.00963)" fill="white"/>
<circle cx="35.3371" cy="9.08719" r="1.00963" transform="rotate(90 35.3371 9.08719)" fill="white"/>
<circle cx="35.3371" cy="17.1639" r="1.00963" transform="rotate(90 35.3371 17.1639)" fill="white"/>
<circle cx="35.3371" cy="25.2412" r="1.00963" transform="rotate(90 35.3371 25.2412)" fill="white"/>
<circle cx="35.3371" cy="33.3184" r="1.00963" transform="rotate(90 35.3371 33.3184)" fill="white"/>
<circle cx="35.3371" cy="41.3952" r="1.00963" transform="rotate(90 35.3371 41.3952)" fill="white"/>
<circle cx="26.7555" cy="1.00963" r="1.00963" transform="rotate(90 26.7555 1.00963)" fill="white"/>
<circle cx="26.7555" cy="9.08719" r="1.00963" transform="rotate(90 26.7555 9.08719)" fill="white"/>
<circle cx="26.7555" cy="17.1639" r="1.00963" transform="rotate(90 26.7555 17.1639)" fill="white"/>
<circle cx="26.7555" cy="25.2412" r="1.00963" transform="rotate(90 26.7555 25.2412)" fill="white"/>
<circle cx="26.7555" cy="33.3184" r="1.00963" transform="rotate(90 26.7555 33.3184)" fill="white"/>
<circle cx="26.7555" cy="41.3952" r="1.00963" transform="rotate(90 26.7555 41.3952)" fill="white"/>
<circle cx="18.1735" cy="1.00963" r="1.00963" transform="rotate(90 18.1735 1.00963)" fill="white"/>
<circle cx="18.1735" cy="9.08719" r="1.00963" transform="rotate(90 18.1735 9.08719)" fill="white"/>
<circle cx="18.1735" cy="17.1639" r="1.00963" transform="rotate(90 18.1735 17.1639)" fill="white"/>
<circle cx="18.1735" cy="25.2412" r="1.00963" transform="rotate(90 18.1735 25.2412)" fill="white"/>
<circle cx="18.1735" cy="33.3184" r="1.00963" transform="rotate(90 18.1735 33.3184)" fill="white"/>
<circle cx="18.1735" cy="41.3952" r="1.00963" transform="rotate(90 18.1735 41.3952)" fill="white"/>
<circle cx="9.59144" cy="1.00963" r="1.00963" transform="rotate(90 9.59144 1.00963)" fill="white"/>
<circle cx="9.59144" cy="9.08719" r="1.00963" transform="rotate(90 9.59144 9.08719)" fill="white"/>
<circle cx="9.59144" cy="17.1639" r="1.00963" transform="rotate(90 9.59144 17.1639)" fill="white"/>
<circle cx="9.59144" cy="25.2412" r="1.00963" transform="rotate(90 9.59144 25.2412)" fill="white"/>
<circle cx="9.59144" cy="33.3184" r="1.00963" transform="rotate(90 9.59144 33.3184)" fill="white"/>
<circle cx="9.59144" cy="41.3952" r="1.00963" transform="rotate(90 9.59144 41.3952)" fill="white"/>
<circle cx="1.0099" cy="1.00963" r="1.00963" transform="rotate(90 1.0099 1.00963)" fill="white"/>
<circle cx="1.0099" cy="9.08719" r="1.00963" transform="rotate(90 1.0099 9.08719)" fill="white"/>
<circle cx="1.0099" cy="17.1639" r="1.00963" transform="rotate(90 1.0099 17.1639)" fill="white"/>
<circle cx="1.0099" cy="25.2412" r="1.00963" transform="rotate(90 1.0099 25.2412)" fill="white"/>
<circle cx="1.0099" cy="33.3184" r="1.00963" transform="rotate(90 1.0099 33.3184)" fill="white"/>
<circle cx="1.0099" cy="41.3952" r="1.00963" transform="rotate(90 1.0099 41.3952)" fill="white"/>
</g>
</svg>
