<svg width="359" height="162" viewBox="0 0 359 162" fill="none" xmlns="http://www.w3.org/2000/svg">
<mask id="mask0_232_9361" style="mask-type:alpha" maskUnits="userSpaceOnUse" x="24" y="8" width="311" height="114">
<path d="M24 28C24 16.9543 32.9543 8 44 8H315C326.046 8 335 16.9543 335 28V122H24V28Z" fill="#002060"/>
</mask>
<g mask="url(#mask0_232_9361)">
<path fill-rule="evenodd" clip-rule="evenodd" d="M321 214C371.81 214 413 172.81 413 122C413 71.1898 371.81 30 321 30C270.19 30 229 71.1898 229 122C229 172.81 270.19 214 321 214ZM300.149 187.346C328.997 187.346 352.383 163.96 352.383 135.112C352.383 106.264 328.997 82.8784 300.149 82.8784C271.302 82.8784 247.916 106.264 247.916 135.112C247.916 163.96 271.302 187.346 300.149 187.346Z" fill="white" fill-opacity="0.1"/>
<path d="M144 -94C144 2.64984 65.6498 81 -31 81C-127.65 81 -206 2.64984 -206 -94C-206 -190.65 -127.65 -269 -31 -269C65.6498 -269 144 -190.65 144 -94Z" fill="white" fill-opacity="0.1"/>
</g>
</svg>
